<?xml version="1.0" encoding="UTF-8"?><svg id="uuid-09608e52-cdb3-4f9f-965a-3ab6bc0e8f20" xmlns="http://www.w3.org/2000/svg" viewBox="0 0 4498.23 4485.81"><g id="uuid-993b5693-40e6-4c0d-b574-fd907f89b335"><g id="uuid-7fd39a1b-7386-443d-8421-bd251ff44b67"><path d="M889.24,2821.98v-1791.46c-.03-.41-.35-3.66-3.08-5.41-2.55-1.64-6.15-1.29-8.73.98-466.14,539.32-599.21,1329.36-288.37,1978.98,7.98,17.41,7.33,26.05-10.64,36.21-110.72,61.07-216.7,127.74-328.05,187.56-10.6,5.69-23.9,1.44-29.22-9.35C-323.12,2114.02,174.99,710.25,1301.28,199.74c3.47-1.57,7.42.98,7.42,4.79v1882.35c0,20.28,21.73,33.14,39.54,23.43,106.16-57.93,207.66-121.06,313.74-179.65,17.97-10.16,23.88-21.76,23.83-42.04-.51-596.56-.23-1193.17-1.06-1789.74,0-10.68,5.42-19.61,11.92-26.49,9.41-9.95,22.19-16.04,35.72-18.15L2070.85,1.6c8.18-1.27,16.73-.15,23.81,4.14,5.81,3.51,10.92,9.31,10.9,18.82-.51,642.19-.21,1869.49-.15,2082.45,0,19.79-10.43,38.07-27.47,48.15l-1156.84,684.99c-14.07,8.33-31.86-1.81-31.86-18.16Z"/><path d="M2818.02,534.18c-2.66,185.57-9.48,1261.47-9.52,1844.71,0,9.2-9.87,15.09-17.96,10.71-129.38-70.1-253.21-146.66-381.69-218.42-15.52-8.87-21.29-19.08-21.29-36.96.42-701.79.46-1403.62-.18-2105.41,0-26.61,10.16-30.35,33.07-28.36,1535.94,73.5,2556.96,1861.37,1848.21,3221.27-4.67,8.97-15.89,12.36-24.77,7.51-110.46-60.31-217.44-126.24-327.39-187.53-17.14-9.75-20.46-17.65-11.87-36.08,298.75-624.87,193.95-1435.06-270.88-1946.47-10.21-11.24-28.95-3.94-28.95,11.24v1788.57c-134.48-71.24-261.21-150.95-394.15-224.49-20.28-11.5-26.93-24.67-26.93-47.4.55-626.22.28-1252.44,1.11-1878.66,0-26.79-7.53-42.4-31.69-53.26l-309.36-137.44c-12.01-5.34-25.57,3.31-25.76,16.45Z"/></g><path d="M1050.4,3579.82c535.5-309.22,1063.63-614.16,1593.99-920.43,9.18-5.3,9.45-18.54.44-24.13-124.45-77.3-253.84-145.76-379.58-221.22-14.37-8.4-24.71-6.69-38.34,1.16-610.61,353.92-1223.08,704.59-1833.07,1059.58-8.94,5.2-11.52,16.99-5.49,25.4,255.47,356.25,607.17,701.62,1032.04,809.94,9.16,2.34,18.89.9,27.08-3.83,535.15-309.55,1070.55-618.52,1605.72-927.9,14.32-8.27,25.22-10.12,40.42-1.2,117.2,70.18,237.38,134.55,353.63,206.12,7.63,4.7,7.46,15.89-.29,20.39-493.63,286.53-990.16,568.14-1482.92,856.13-2.15,1.26-1.5,4.56.96,4.91,837.17,119.24,1686.33-275.94,2153.24-978.91l-.04.05c-338.56-199.68-680.44-392.95-1019.91-591.07-17.74-10.25-30.53-10.11-48.22.14-555.51,298.98-1100.24,678.05-1661.72,939.07-11.43,5.32-24.79,4.13-35.12-3.1-55.37-38.72-233.87-163.49-304.51-212.87-13.61-9.51-12.66-29.93,1.72-38.24Z"/></g></svg>